<svg xmlns="http://www.w3.org/2000/svg" xmlns:xlink="http://www.w3.org/1999/xlink" width="47.55" height="38.04"><path fill="#000" d="M4.72 30.11C8.43 30.11 11.22 28.15 11.22 23.62C11.22 20.80 10.02 18.67 7.42 18.01C9.35 17.15 10.43 15.44 10.43 12.81C10.43 9.48 8.65 7.45 5.10 7.45L1.81 7.45L1.81 30.11ZM5.04 8.72C7.70 8.72 8.88 10.24 8.88 12.93C8.88 16.10 7.29 17.47 4.98 17.47L3.39 17.47L3.39 8.72ZM5.45 18.70C8.27 18.70 9.64 20.70 9.64 23.84C9.64 27.55 7.58 28.85 4.50 28.85L3.39 28.85L3.39 18.70ZM21.33 30.11L22.76 30.11L22.76 14.14L21.46 14.14L16.26 25.36C15.95 26.06 15.63 26.75 15.41 27.48L15.31 27.48C15.37 26.79 15.44 26.09 15.44 25.23L15.44 14.14L14.04 14.14L14.04 30.11L15.31 30.11L20.51 18.86C20.86 18.16 21.14 17.50 21.37 16.80L21.46 16.80C21.40 17.47 21.33 18.16 21.33 18.99ZM27.83 21.84L33.38 30.11L35.03 30.11L29.39 21.56L34.65 14.14L33.19 14.14L27.83 21.65L27.83 14.14L26.34 14.14L26.34 30.11L27.83 30.11ZM44.32 30.11L45.74 30.11L45.74 14.14L44.44 14.14L39.24 25.36C38.93 26.06 38.61 26.75 38.39 27.48L38.29 27.48C38.36 26.79 38.42 26.09 38.42 25.23L38.42 14.14L37.03 14.14L37.03 30.11L38.29 30.11L43.49 18.86C43.84 18.16 44.13 17.50 44.35 16.80L44.44 16.80C44.38 17.47 44.32 18.16 44.32 18.99Z"/></svg>